<svg width="20" height="20" viewBox="0 0 20 20" fill="none" xmlns="http://www.w3.org/2000/svg">
<path d="M8.05916 3.44663C8.10508 2.96358 8.32944 2.515 8.68842 2.18853C9.04739 1.86206 9.51519 1.68115 10.0004 1.68115C10.4856 1.68115 10.9534 1.86206 11.3124 2.18853C11.6714 2.515 11.8957 2.96358 11.9417 3.44663C11.9693 3.75868 12.0716 4.05948 12.2401 4.32358C12.4086 4.58768 12.6382 4.8073 12.9096 4.96386C13.1809 5.12042 13.486 5.2093 13.7989 5.22298C14.1119 5.23666 14.4235 5.17474 14.7075 5.04246C15.1484 4.84228 15.6481 4.81331 16.1092 4.9612C16.5703 5.10909 16.9599 5.42326 17.2021 5.84255C17.4443 6.26185 17.5219 6.75627 17.4197 7.22961C17.3175 7.70294 17.0428 8.12131 16.6492 8.4033C16.3928 8.58317 16.1836 8.82214 16.0391 9.09998C15.8946 9.37783 15.8192 9.68639 15.8192 9.99955C15.8192 10.3127 15.8946 10.6213 16.0391 10.8991C16.1836 11.177 16.3928 11.4159 16.6492 11.5958C17.0428 11.8778 17.3175 12.2962 17.4197 12.7695C17.5219 13.2428 17.4443 13.7372 17.2021 14.1565C16.9599 14.5758 16.5703 14.89 16.1092 15.0379C15.6481 15.1858 15.1484 15.1568 14.7075 14.9566C14.4235 14.8244 14.1119 14.7624 13.7989 14.7761C13.486 14.7898 13.1809 14.8787 12.9096 15.0352C12.6382 15.1918 12.4086 15.4114 12.2401 15.6755C12.0716 15.9396 11.9693 16.2404 11.9417 16.5525C11.8957 17.0355 11.6714 17.4841 11.3124 17.8106C10.9534 18.137 10.4856 18.3179 10.0004 18.3179C9.51519 18.3179 9.04739 18.137 8.68842 17.8106C8.32944 17.4841 8.10508 17.0355 8.05916 16.5525C8.03162 16.2403 7.92925 15.9394 7.76072 15.6752C7.59219 15.411 7.36248 15.1913 7.09103 15.0347C6.81958 14.8782 6.51439 14.7893 6.20131 14.7757C5.88824 14.7621 5.5765 14.8242 5.2925 14.9566C4.85157 15.1568 4.35194 15.1858 3.89083 15.0379C3.42973 14.89 3.04014 14.5758 2.7979 14.1565C2.55566 13.7372 2.47809 13.2428 2.5803 12.7695C2.6825 12.2962 2.95717 11.8778 3.35083 11.5958C3.60718 11.4159 3.81644 11.177 3.96091 10.8991C4.10537 10.6213 4.18079 10.3127 4.18079 9.99955C4.18079 9.68639 4.10537 9.37783 3.96091 9.09998C3.81644 8.82214 3.60718 8.58317 3.35083 8.4033C2.95772 8.12117 2.68354 7.70296 2.58158 7.22995C2.47963 6.75694 2.55717 6.26291 2.79915 5.84389C3.04113 5.42487 3.43026 5.11078 3.89091 4.96266C4.35155 4.81455 4.85082 4.84299 5.29166 5.04246C5.57563 5.17474 5.88728 5.23666 6.20025 5.22298C6.51321 5.2093 6.81827 5.12042 7.08961 4.96386C7.36095 4.8073 7.59058 4.58768 7.75905 4.32358C7.92753 4.05948 8.0299 3.75868 8.0575 3.44663" stroke="#2A2418" stroke-width="1.66667" stroke-linecap="round" stroke-linejoin="round"/>
<path d="M10 12.5C11.3807 12.5 12.5 11.3807 12.5 10C12.5 8.61929 11.3807 7.5 10 7.5C8.61929 7.5 7.5 8.61929 7.5 10C7.5 11.3807 8.61929 12.5 10 12.5Z" stroke="#2A2418" stroke-width="1.66667" stroke-linecap="round" stroke-linejoin="round"/>
</svg>
